<?xml version="1.0" standalone="no"?>
<!DOCTYPE svg PUBLIC "-//W3C//DTD SVG 20010904//EN"
 "http://www.w3.org/TR/2001/REC-SVG-20010904/DTD/svg10.dtd">
<svg version="1.0" xmlns="http://www.w3.org/2000/svg"
 width="636.000000pt" height="636.000000pt" viewBox="0 0 636.000000 636.000000"
 preserveAspectRatio="xMidYMid meet">
<metadata>
Accent
</metadata>
<g transform="translate(0.000000,636.000000) scale(0.100000,-0.100000)"
fill="#000000" stroke="none">
<path d="M3859 5906 c-2 -2 -39 -6 -82 -10 -42 -4 -88 -11 -102 -16 -14 -5
-25 -7 -25 -5 0 11 -150 -51 -213 -89 -77 -45 -207 -166 -254 -236 -73 -107
-105 -174 -203 -420 -45 -113 -85 -209 -88 -215 -4 -5 -7 -14 -8 -20 -3 -11
-109 -278 -124 -310 -5 -11 -34 -85 -65 -165 -31 -80 -62 -156 -67 -170 -6
-14 -12 -29 -14 -35 -1 -5 -33 -84 -69 -175 -37 -91 -68 -169 -69 -175 -2 -5
-8 -21 -13 -35 -6 -14 -28 -68 -48 -120 -20 -52 -46 -114 -56 -137 -10 -24
-19 -47 -19 -53 0 -6 -4 -18 -10 -28 -5 -9 -30 -70 -55 -134 -95 -249 -137
-354 -151 -385 -8 -17 -14 -37 -14 -45 0 -8 -4 -18 -8 -23 -4 -6 -18 -37 -31
-70 -38 -101 -53 -139 -62 -160 -5 -11 -29 -74 -54 -140 -47 -123 -71 -185
-86 -220 -5 -11 -36 -92 -69 -180 -34 -88 -68 -172 -76 -187 -8 -14 -14 -36
-14 -47 0 -12 -4 -21 -10 -21 -5 0 -9 -3 -8 -7 1 -8 -2 -19 -27 -83 -8 -19
-35 -89 -61 -155 -25 -66 -51 -131 -57 -145 -6 -14 -11 -27 -12 -30 -6 -25
-19 -60 -30 -85 -16 -35 -38 -88 -40 -95 -2 -9 -91 -242 -105 -275 -14 -33
-23 -59 -26 -74 -1 -7 -7 -18 -13 -24 -6 -6 -11 -17 -11 -25 0 -8 -6 -28 -14
-45 -23 -54 -38 -96 -36 -103 1 -4 -2 -10 -7 -13 -10 -7 -37 -87 -37 -111 0
-8 3 -34 8 -58 6 -33 12 -42 24 -38 10 3 35 10 57 16 22 6 50 16 63 23 12 7
131 118 263 247 133 129 283 276 334 325 101 99 575 560 770 750 68 66 269
262 446 435 408 398 1640 1628 1700 1696 49 57 58 68 109 134 19 25 38 47 42
48 5 2 8 8 8 14 0 5 13 28 28 51 58 85 127 249 140 336 3 20 6 90 6 156 0 98
-4 134 -23 195 -21 67 -82 204 -114 255 -137 219 -255 347 -434 472 -78 55
-287 151 -365 169 -5 1 -9 2 -10 4 -4 2 -17 5 -108 25 -91 20 -114 23 -210 31
-41 3 -78 8 -81 10 -3 2 -8 2 -10 0z"/>
</g>
</svg>
